<mxfile host="app.diagrams.net" modified="2021-01-02T09:33:12.018Z" agent="5.0 (Windows NT 10.0; Win64; x64) AppleWebKit/537.36 (KHTML, like Gecko) Chrome/87.0.4280.88 Safari/537.36" etag="H-x_atMRyPwPRtmmtjtq" version="14.1.2" type="github">
  <diagram id="EMqzttN0W1V-fPkIx3bq" name="第 1 页">
    <mxGraphModel dx="992" dy="563" grid="1" gridSize="10" guides="1" tooltips="1" connect="1" arrows="1" fold="1" page="1" pageScale="1" pageWidth="827" pageHeight="1169" math="0" shadow="0">
      <root>
        <mxCell id="0" />
        <mxCell id="1" parent="0" />
        <mxCell id="0VcnsqzmN8AN9IuAgq7w-1" value="DUT&lt;br&gt;wb2spi.v" style="rounded=0;whiteSpace=wrap;html=1;" parent="1" vertex="1">
          <mxGeometry x="354" y="180" width="120" height="270" as="geometry" />
        </mxCell>
        <mxCell id="0VcnsqzmN8AN9IuAgq7w-2" value="" style="shape=flexArrow;endArrow=classic;startArrow=classic;html=1;width=26;endSize=4.93;" parent="1" edge="1">
          <mxGeometry width="50" height="50" relative="1" as="geometry">
            <mxPoint x="210" y="480" as="sourcePoint" />
            <mxPoint x="210" y="120" as="targetPoint" />
          </mxGeometry>
        </mxCell>
        <mxCell id="0VcnsqzmN8AN9IuAgq7w-3" value="spi_if" style="edgeLabel;html=1;align=center;verticalAlign=middle;resizable=0;points=[];fontSize=14;rotation=90;" parent="0VcnsqzmN8AN9IuAgq7w-2" vertex="1" connectable="0">
          <mxGeometry x="0.3644" y="-2" relative="1" as="geometry">
            <mxPoint x="-2" y="56" as="offset" />
          </mxGeometry>
        </mxCell>
        <mxCell id="0VcnsqzmN8AN9IuAgq7w-4" value="" style="shape=flexArrow;endArrow=classic;startArrow=classic;html=1;width=26;endSize=4.93;" parent="1" edge="1">
          <mxGeometry width="50" height="50" relative="1" as="geometry">
            <mxPoint x="610" y="480" as="sourcePoint" />
            <mxPoint x="610" y="120" as="targetPoint" />
          </mxGeometry>
        </mxCell>
        <mxCell id="0VcnsqzmN8AN9IuAgq7w-5" value="wb_if" style="edgeLabel;html=1;align=center;verticalAlign=middle;resizable=0;points=[];fontSize=14;rotation=90;" parent="0VcnsqzmN8AN9IuAgq7w-4" vertex="1" connectable="0">
          <mxGeometry x="0.3644" y="-2" relative="1" as="geometry">
            <mxPoint x="-2" y="56" as="offset" />
          </mxGeometry>
        </mxCell>
        <mxCell id="0VcnsqzmN8AN9IuAgq7w-6" value="" style="endArrow=classic;html=1;fontSize=14;entryX=-0.033;entryY=0.37;entryDx=0;entryDy=0;entryPerimeter=0;" parent="1" target="0VcnsqzmN8AN9IuAgq7w-1" edge="1">
          <mxGeometry width="50" height="50" relative="1" as="geometry">
            <mxPoint x="220" y="280" as="sourcePoint" />
            <mxPoint x="270" y="230" as="targetPoint" />
          </mxGeometry>
        </mxCell>
        <mxCell id="0VcnsqzmN8AN9IuAgq7w-7" value="miso" style="edgeLabel;html=1;align=center;verticalAlign=middle;resizable=0;points=[];fontSize=14;" parent="0VcnsqzmN8AN9IuAgq7w-6" vertex="1" connectable="0">
          <mxGeometry x="-0.2369" y="2" relative="1" as="geometry">
            <mxPoint as="offset" />
          </mxGeometry>
        </mxCell>
        <mxCell id="0VcnsqzmN8AN9IuAgq7w-8" value="" style="endArrow=classic;html=1;fontSize=14;" parent="1" edge="1">
          <mxGeometry width="50" height="50" relative="1" as="geometry">
            <mxPoint x="350" y="314.5" as="sourcePoint" />
            <mxPoint x="220" y="315" as="targetPoint" />
          </mxGeometry>
        </mxCell>
        <mxCell id="0VcnsqzmN8AN9IuAgq7w-9" value="mosi" style="edgeLabel;html=1;align=center;verticalAlign=middle;resizable=0;points=[];fontSize=14;" parent="0VcnsqzmN8AN9IuAgq7w-8" vertex="1" connectable="0">
          <mxGeometry x="0.2533" y="1" relative="1" as="geometry">
            <mxPoint as="offset" />
          </mxGeometry>
        </mxCell>
        <mxCell id="0VcnsqzmN8AN9IuAgq7w-10" value="" style="endArrow=classic;html=1;fontSize=14;" parent="1" edge="1">
          <mxGeometry width="50" height="50" relative="1" as="geometry">
            <mxPoint x="350" y="350" as="sourcePoint" />
            <mxPoint x="220" y="350" as="targetPoint" />
          </mxGeometry>
        </mxCell>
        <mxCell id="0VcnsqzmN8AN9IuAgq7w-11" value="sck" style="edgeLabel;html=1;align=center;verticalAlign=middle;resizable=0;points=[];fontSize=14;" parent="0VcnsqzmN8AN9IuAgq7w-10" vertex="1" connectable="0">
          <mxGeometry x="0.3097" y="3" relative="1" as="geometry">
            <mxPoint as="offset" />
          </mxGeometry>
        </mxCell>
        <mxCell id="0VcnsqzmN8AN9IuAgq7w-12" value="" style="shape=flexArrow;endArrow=classic;startArrow=classic;html=1;fontSize=14;" parent="1" edge="1">
          <mxGeometry width="50" height="50" relative="1" as="geometry">
            <mxPoint x="164" y="70" as="sourcePoint" />
            <mxPoint x="664" y="70" as="targetPoint" />
          </mxGeometry>
        </mxCell>
        <mxCell id="0VcnsqzmN8AN9IuAgq7w-13" value="cr_if" style="edgeLabel;html=1;align=center;verticalAlign=middle;resizable=0;points=[];fontSize=14;" parent="0VcnsqzmN8AN9IuAgq7w-12" vertex="1" connectable="0">
          <mxGeometry x="-0.2048" y="1" relative="1" as="geometry">
            <mxPoint x="51" as="offset" />
          </mxGeometry>
        </mxCell>
        <mxCell id="0VcnsqzmN8AN9IuAgq7w-14" value="" style="endArrow=classic;html=1;fontSize=14;" parent="1" edge="1">
          <mxGeometry width="50" height="50" relative="1" as="geometry">
            <mxPoint x="510" y="80" as="sourcePoint" />
            <mxPoint x="600" y="180" as="targetPoint" />
            <Array as="points">
              <mxPoint x="510" y="180" />
            </Array>
          </mxGeometry>
        </mxCell>
        <mxCell id="0VcnsqzmN8AN9IuAgq7w-15" value="clk&amp;amp;rst" style="edgeLabel;html=1;align=center;verticalAlign=middle;resizable=0;points=[];fontSize=14;" parent="0VcnsqzmN8AN9IuAgq7w-14" vertex="1" connectable="0">
          <mxGeometry x="-0.68" y="-1" relative="1" as="geometry">
            <mxPoint as="offset" />
          </mxGeometry>
        </mxCell>
        <mxCell id="0VcnsqzmN8AN9IuAgq7w-16" value="" style="endArrow=classic;html=1;fontSize=14;" parent="1" edge="1">
          <mxGeometry width="50" height="50" relative="1" as="geometry">
            <mxPoint x="592" y="220" as="sourcePoint" />
            <mxPoint x="472" y="220" as="targetPoint" />
          </mxGeometry>
        </mxCell>
        <mxCell id="0VcnsqzmN8AN9IuAgq7w-17" value="wb_cyc" style="edgeLabel;html=1;align=center;verticalAlign=middle;resizable=0;points=[];fontSize=14;" parent="0VcnsqzmN8AN9IuAgq7w-16" vertex="1" connectable="0">
          <mxGeometry x="0.1867" relative="1" as="geometry">
            <mxPoint as="offset" />
          </mxGeometry>
        </mxCell>
        <mxCell id="0VcnsqzmN8AN9IuAgq7w-18" value="" style="endArrow=classic;html=1;fontSize=14;" parent="1" edge="1">
          <mxGeometry width="50" height="50" relative="1" as="geometry">
            <mxPoint x="594" y="240" as="sourcePoint" />
            <mxPoint x="474" y="240" as="targetPoint" />
          </mxGeometry>
        </mxCell>
        <mxCell id="0VcnsqzmN8AN9IuAgq7w-19" value="wb_stb" style="edgeLabel;html=1;align=center;verticalAlign=middle;resizable=0;points=[];fontSize=14;" parent="0VcnsqzmN8AN9IuAgq7w-18" vertex="1" connectable="0">
          <mxGeometry x="0.1867" relative="1" as="geometry">
            <mxPoint as="offset" />
          </mxGeometry>
        </mxCell>
        <mxCell id="0VcnsqzmN8AN9IuAgq7w-20" value="" style="endArrow=classic;html=1;fontSize=14;" parent="1" edge="1">
          <mxGeometry width="50" height="50" relative="1" as="geometry">
            <mxPoint x="594" y="260" as="sourcePoint" />
            <mxPoint x="474" y="260" as="targetPoint" />
          </mxGeometry>
        </mxCell>
        <mxCell id="0VcnsqzmN8AN9IuAgq7w-21" value="wb_addr" style="edgeLabel;html=1;align=center;verticalAlign=middle;resizable=0;points=[];fontSize=14;" parent="0VcnsqzmN8AN9IuAgq7w-20" vertex="1" connectable="0">
          <mxGeometry x="0.1867" relative="1" as="geometry">
            <mxPoint as="offset" />
          </mxGeometry>
        </mxCell>
        <mxCell id="0VcnsqzmN8AN9IuAgq7w-22" value="" style="endArrow=classic;html=1;fontSize=14;" parent="1" edge="1">
          <mxGeometry width="50" height="50" relative="1" as="geometry">
            <mxPoint x="594" y="280" as="sourcePoint" />
            <mxPoint x="474" y="280" as="targetPoint" />
          </mxGeometry>
        </mxCell>
        <mxCell id="0VcnsqzmN8AN9IuAgq7w-23" value="wb_we" style="edgeLabel;html=1;align=center;verticalAlign=middle;resizable=0;points=[];fontSize=14;" parent="0VcnsqzmN8AN9IuAgq7w-22" vertex="1" connectable="0">
          <mxGeometry x="0.1867" relative="1" as="geometry">
            <mxPoint as="offset" />
          </mxGeometry>
        </mxCell>
        <mxCell id="0VcnsqzmN8AN9IuAgq7w-24" value="" style="endArrow=classic;html=1;fontSize=14;" parent="1" edge="1">
          <mxGeometry width="50" height="50" relative="1" as="geometry">
            <mxPoint x="594" y="302" as="sourcePoint" />
            <mxPoint x="474" y="302" as="targetPoint" />
          </mxGeometry>
        </mxCell>
        <mxCell id="0VcnsqzmN8AN9IuAgq7w-25" value="wb_data_in" style="edgeLabel;html=1;align=center;verticalAlign=middle;resizable=0;points=[];fontSize=14;" parent="0VcnsqzmN8AN9IuAgq7w-24" vertex="1" connectable="0">
          <mxGeometry x="0.1867" relative="1" as="geometry">
            <mxPoint as="offset" />
          </mxGeometry>
        </mxCell>
        <mxCell id="0VcnsqzmN8AN9IuAgq7w-26" value="" style="endArrow=classic;html=1;fontSize=14;" parent="1" edge="1">
          <mxGeometry width="50" height="50" relative="1" as="geometry">
            <mxPoint x="471" y="330" as="sourcePoint" />
            <mxPoint x="600" y="330" as="targetPoint" />
          </mxGeometry>
        </mxCell>
        <mxCell id="0VcnsqzmN8AN9IuAgq7w-27" value="wb_ack" style="edgeLabel;html=1;align=center;verticalAlign=middle;resizable=0;points=[];fontSize=14;" parent="0VcnsqzmN8AN9IuAgq7w-26" vertex="1" connectable="0">
          <mxGeometry x="0.1867" relative="1" as="geometry">
            <mxPoint as="offset" />
          </mxGeometry>
        </mxCell>
        <mxCell id="0VcnsqzmN8AN9IuAgq7w-28" value="" style="endArrow=classic;html=1;fontSize=14;" parent="1" edge="1">
          <mxGeometry width="50" height="50" relative="1" as="geometry">
            <mxPoint x="474" y="350" as="sourcePoint" />
            <mxPoint x="600" y="350" as="targetPoint" />
          </mxGeometry>
        </mxCell>
        <mxCell id="0VcnsqzmN8AN9IuAgq7w-29" value="wb_data_out" style="edgeLabel;html=1;align=center;verticalAlign=middle;resizable=0;points=[];fontSize=14;" parent="0VcnsqzmN8AN9IuAgq7w-28" vertex="1" connectable="0">
          <mxGeometry x="0.1867" relative="1" as="geometry">
            <mxPoint as="offset" />
          </mxGeometry>
        </mxCell>
        <mxCell id="0VcnsqzmN8AN9IuAgq7w-30" value="" style="endArrow=classic;html=1;fontSize=14;" parent="1" edge="1">
          <mxGeometry width="50" height="50" relative="1" as="geometry">
            <mxPoint x="594" y="380" as="sourcePoint" />
            <mxPoint x="474" y="380" as="targetPoint" />
          </mxGeometry>
        </mxCell>
        <mxCell id="0VcnsqzmN8AN9IuAgq7w-31" value="wb_cyc" style="edgeLabel;html=1;align=center;verticalAlign=middle;resizable=0;points=[];fontSize=14;" parent="0VcnsqzmN8AN9IuAgq7w-30" vertex="1" connectable="0">
          <mxGeometry x="0.1867" relative="1" as="geometry">
            <mxPoint as="offset" />
          </mxGeometry>
        </mxCell>
        <mxCell id="0VcnsqzmN8AN9IuAgq7w-34" value="inta" style="text;html=1;strokeColor=none;fillColor=none;align=center;verticalAlign=middle;whiteSpace=wrap;rounded=0;fontSize=14;" parent="1" vertex="1">
          <mxGeometry x="630" y="220" width="40" height="20" as="geometry" />
        </mxCell>
        <mxCell id="0VcnsqzmN8AN9IuAgq7w-35" value="err" style="text;html=1;strokeColor=none;fillColor=none;align=center;verticalAlign=middle;whiteSpace=wrap;rounded=0;fontSize=14;" parent="1" vertex="1">
          <mxGeometry x="630" y="260" width="40" height="20" as="geometry" />
        </mxCell>
        <mxCell id="0VcnsqzmN8AN9IuAgq7w-36" value="rty" style="text;html=1;strokeColor=none;fillColor=none;align=center;verticalAlign=middle;whiteSpace=wrap;rounded=0;fontSize=14;" parent="1" vertex="1">
          <mxGeometry x="630" y="300" width="40" height="20" as="geometry" />
        </mxCell>
        <mxCell id="0VcnsqzmN8AN9IuAgq7w-37" value="sel" style="text;html=1;strokeColor=none;fillColor=none;align=center;verticalAlign=middle;whiteSpace=wrap;rounded=0;fontSize=14;" parent="1" vertex="1">
          <mxGeometry x="630" y="360" width="40" height="20" as="geometry" />
        </mxCell>
        <mxCell id="0VcnsqzmN8AN9IuAgq7w-38" value="q" style="text;html=1;strokeColor=none;fillColor=none;align=center;verticalAlign=middle;whiteSpace=wrap;rounded=0;fontSize=14;" parent="1" vertex="1">
          <mxGeometry x="630" y="410" width="40" height="20" as="geometry" />
        </mxCell>
        <mxCell id="k3s0Qyu1QxLextBOLM78-4" value="" style="edgeStyle=orthogonalEdgeStyle;rounded=0;orthogonalLoop=1;jettySize=auto;html=1;" edge="1" parent="1" source="k3s0Qyu1QxLextBOLM78-1" target="k3s0Qyu1QxLextBOLM78-3">
          <mxGeometry relative="1" as="geometry" />
        </mxCell>
        <mxCell id="k3s0Qyu1QxLextBOLM78-1" value="test_top" style="rounded=0;whiteSpace=wrap;html=1;" vertex="1" parent="1">
          <mxGeometry x="260" y="750" width="120" height="60" as="geometry" />
        </mxCell>
        <mxCell id="k3s0Qyu1QxLextBOLM78-6" value="" style="edgeStyle=orthogonalEdgeStyle;rounded=0;orthogonalLoop=1;jettySize=auto;html=1;" edge="1" parent="1" source="k3s0Qyu1QxLextBOLM78-3" target="k3s0Qyu1QxLextBOLM78-5">
          <mxGeometry relative="1" as="geometry" />
        </mxCell>
        <mxCell id="k3s0Qyu1QxLextBOLM78-3" value="uvmf_test_base是一个参数化类，参数是configuration、environment、sequence" style="whiteSpace=wrap;html=1;rounded=0;align=left;" vertex="1" parent="1">
          <mxGeometry x="420" y="750" width="150" height="60" as="geometry" />
        </mxCell>
        <mxCell id="k3s0Qyu1QxLextBOLM78-8" value="" style="edgeStyle=orthogonalEdgeStyle;rounded=0;orthogonalLoop=1;jettySize=auto;html=1;" edge="1" parent="1" source="k3s0Qyu1QxLextBOLM78-5" target="k3s0Qyu1QxLextBOLM78-7">
          <mxGeometry relative="1" as="geometry" />
        </mxCell>
        <mxCell id="k3s0Qyu1QxLextBOLM78-9" value="" style="edgeStyle=orthogonalEdgeStyle;rounded=0;orthogonalLoop=1;jettySize=auto;html=1;" edge="1" parent="1" source="k3s0Qyu1QxLextBOLM78-5" target="k3s0Qyu1QxLextBOLM78-7">
          <mxGeometry relative="1" as="geometry" />
        </mxCell>
        <mxCell id="k3s0Qyu1QxLextBOLM78-13" style="edgeStyle=orthogonalEdgeStyle;rounded=0;orthogonalLoop=1;jettySize=auto;html=1;entryX=0;entryY=0.5;entryDx=0;entryDy=0;" edge="1" parent="1" source="k3s0Qyu1QxLextBOLM78-5" target="k3s0Qyu1QxLextBOLM78-10">
          <mxGeometry relative="1" as="geometry" />
        </mxCell>
        <mxCell id="k3s0Qyu1QxLextBOLM78-14" style="edgeStyle=orthogonalEdgeStyle;rounded=0;orthogonalLoop=1;jettySize=auto;html=1;entryX=0;entryY=0.5;entryDx=0;entryDy=0;" edge="1" parent="1" source="k3s0Qyu1QxLextBOLM78-5" target="k3s0Qyu1QxLextBOLM78-11">
          <mxGeometry relative="1" as="geometry" />
        </mxCell>
        <mxCell id="k3s0Qyu1QxLextBOLM78-5" value="1、实例化configuration&lt;br&gt;2、实例化environment&lt;br&gt;3、实例化top level sequence" style="whiteSpace=wrap;html=1;rounded=0;align=left;" vertex="1" parent="1">
          <mxGeometry x="600" y="750" width="170" height="60" as="geometry" />
        </mxCell>
        <mxCell id="k3s0Qyu1QxLextBOLM78-7" value="configuration是wb2spi_configuration" style="whiteSpace=wrap;html=1;rounded=0;align=left;" vertex="1" parent="1">
          <mxGeometry x="850" y="700" width="220" height="60" as="geometry" />
        </mxCell>
        <mxCell id="k3s0Qyu1QxLextBOLM78-10" value="wb2spi_environment" style="whiteSpace=wrap;html=1;rounded=0;align=left;" vertex="1" parent="1">
          <mxGeometry x="850" y="790" width="120" height="60" as="geometry" />
        </mxCell>
        <mxCell id="k3s0Qyu1QxLextBOLM78-11" value="wb2spi_sequence_base" style="whiteSpace=wrap;html=1;rounded=0;align=left;" vertex="1" parent="1">
          <mxGeometry x="850" y="880" width="140" height="60" as="geometry" />
        </mxCell>
      </root>
    </mxGraphModel>
  </diagram>
</mxfile>
